<?xml version="1.0" encoding="UTF-8" standalone="no"?>
<svg
   width="256px"
   height="256px"
   viewBox="0 0 256 256"
   id="Flat"
   version="1.1"
   sodipodi:docname="number-thirteen.svg"
   inkscape:version="1.2 (dc2aedaf03, 2022-05-15)"
   xmlns:inkscape="http://www.inkscape.org/namespaces/inkscape"
   xmlns:sodipodi="http://sodipodi.sourceforge.net/DTD/sodipodi-0.dtd"
   xmlns="http://www.w3.org/2000/svg"
   xmlns:svg="http://www.w3.org/2000/svg">
  <defs
     id="defs28" />
  <sodipodi:namedview
     id="namedview26"
     pagecolor="#ffffff"
     bordercolor="#000000"
     borderopacity="0.25"
     inkscape:showpageshadow="2"
     inkscape:pageopacity="0.0"
     inkscape:pagecheckerboard="0"
     inkscape:deskcolor="#d1d1d1"
     showgrid="false"
     inkscape:zoom="3.5820313"
     inkscape:cx="174.76118"
     inkscape:cy="161.9193"
     inkscape:window-width="3840"
     inkscape:window-height="2066"
     inkscape:window-x="3829"
     inkscape:window-y="-11"
     inkscape:window-maximized="1"
     inkscape:current-layer="Flat" />
  <path
     d="M 86.530495,32.674826 V 224.67383 a 8.00427,8.00427 0 0 1 -16.00854,0 V 47.625506 l -35.54517,23.69141 a 8.0019224,8.0019224 0 1 1 -8.88184,-13.313 l 47.99048,-31.98584 a 8.00467,8.00467 0 0 1 12.44507,6.65675 z"
     id="path23" />
  <path
     d="m 235.0801,168.68296 a 63.99178,63.99178 0 0 1 -109.24218,45.251 8.0000152,8.0000152 0 0 1 11.31445,-11.313 47.994,47.994 0 1 0 33.93554,-81.93408 7.99947,7.99947 0 0 1 -6.55469,-12.58594 L 211.7061,40.678074 h -80.626 a 8,8 0 0 1 0,-16 h 95.9873 a 7.99946,7.99946 0 0 1 6.5547,12.58594 l -48.28125,69.006826 a 64.055,64.055 0 0 1 49.73925,62.41212 z"
     id="path195" />
</svg>
